<svg display="none" xmlns="http://www.w3.org/2000/svg">

    <symbol id="search" viewBox="0 0 20 20.062">
    
       <g><path id="_" data-name="" class="cls-1" d="M1207.99,445.98l-1.04,1.047-5.77-5.784a6.393,6.393,0,0,1-1.09.8,8.623,8.623,0,0,1-1.24.6,7.282,7.282,0,0,1-1.37.374,8.383,8.383,0,0,1-1.42.125,7.735,7.735,0,0,1-3.16-.648,8.442,8.442,0,0,1-2.56-1.745,7.911,7.911,0,0,1-1.71-2.568,7.82,7.82,0,0,1-.62-3.116,8.06,8.06,0,0,1,2.33-5.734,8.1,8.1,0,0,1,2.56-1.72,8.008,8.008,0,0,1,3.16-.623,7.993,7.993,0,0,1,5.67,2.343,8.35,8.35,0,0,1,1.74,2.568,7.794,7.794,0,0,1,.64,3.166,8.663,8.663,0,0,1-.12,1.421,7.462,7.462,0,0,1-.37,1.371,9.336,9.336,0,0,1-.6,1.246,6.95,6.95,0,0,1-.79,1.1l5.76,5.784h0Zm-19.14-10.919a7.015,7.015,0,0,0,.55,2.792,7.121,7.121,0,0,0,1.54,2.293,7.322,7.322,0,0,0,2.31,1.571,6.992,6.992,0,0,0,2.81.573,6.828,6.828,0,0,0,2.79-.573,7.422,7.422,0,0,0,2.28-1.571,7.547,7.547,0,0,0,1.57-2.293,6.858,6.858,0,0,0,.57-2.792,7.036,7.036,0,0,0-.57-2.817,7.48,7.48,0,0,0-1.57-2.318,7.018,7.018,0,0,0-5.07-2.095,7.274,7.274,0,0,0-2.81.549,7.094,7.094,0,0,0-3.85,3.864,7.2,7.2,0,0,0-.55,2.817h0Z" transform="translate(-1188 -426.969)"/></g>
    </symbol>

    <symbol id="arrow-down" viewBox="0 0 256 256">
    
       <g> <path d="M38.399,76.8c1.637,0,3.274,0.625,4.524,1.875l85.075,85.076l85.075-85.076c2.5-2.5,6.55-2.5,9.05,0s2.5,6.55,0,9.05  l-89.6,89.601c-2.5,2.5-6.551,2.5-9.051,0l-89.6-89.601c-2.5-2.5-2.5-6.55,0-9.05C35.124,77.425,36.762,76.8,38.399,76.8z"/></g>
    </symbol>



    <symbol id="search-places" viewBox="0 0 56.531 56.53">
    
       <g> <path id="_" data-name="" class="cls-1" d="M548.266,1673.81l-2.954,2.96L529,1660.45a18,18,0,0,1-3.094,2.25,24.059,24.059,0,0,1-3.515,1.69,20.8,20.8,0,0,1-3.868,1.06,24.021,24.021,0,0,1-4.007.35,21.867,21.867,0,0,1-8.93-1.83,23.622,23.622,0,0,1-7.242-4.92,22.523,22.523,0,0,1-4.852-7.25,22.224,22.224,0,0,1-1.758-8.78,22.6,22.6,0,0,1,22.782-22.79,22.337,22.337,0,0,1,8.789,1.76,22.794,22.794,0,0,1,7.242,4.85,23.707,23.707,0,0,1,4.922,7.25,21.9,21.9,0,0,1,1.828,8.93,23.551,23.551,0,0,1-.352,4,20.544,20.544,0,0,1-1.054,3.87,24.84,24.84,0,0,1-1.688,3.52,18.988,18.988,0,0,1-2.25,3.09l16.313,16.31h0Zm-54.141-30.79a19.963,19.963,0,0,0,1.547,7.87,20.187,20.187,0,0,0,4.359,6.47,20.879,20.879,0,0,0,6.539,4.43,19.709,19.709,0,0,0,7.946,1.62,19.226,19.226,0,0,0,7.875-1.62,21.318,21.318,0,0,0,10.9-10.9,19.26,19.26,0,0,0,1.617-7.87,19.776,19.776,0,0,0-1.617-7.95,21.078,21.078,0,0,0-4.43-6.54,20.279,20.279,0,0,0-6.468-4.36,20.032,20.032,0,0,0-7.875-1.55,20.538,20.538,0,0,0-7.946,1.55,20.036,20.036,0,0,0-10.9,10.9,20.5,20.5,0,0,0-1.547,7.95h0Z" transform="translate(-491.719 -1620.22)"/></g>
    </symbol>


    <symbol id="select" viewBox="0 0 59.907 59.91">
    
       <g><path id="_" data-name="" class="cls-1" d="M900,1619.55a29.925,29.925,0,1,1-11.672,2.32A29.593,29.593,0,0,1,900,1619.55h0Zm0,57.51a26.481,26.481,0,0,0,10.758-2.18,26.615,26.615,0,0,0,14.625-14.62,27.656,27.656,0,0,0,0-21.52,26.615,26.615,0,0,0-14.625-14.62,27.635,27.635,0,0,0-21.516,0,26.615,26.615,0,0,0-14.625,14.62,27.644,27.644,0,0,0,0,21.52,26.615,26.615,0,0,0,14.625,14.62A26.467,26.467,0,0,0,900,1677.06h0Zm15.047-38.25a1.416,1.416,0,0,1,1.195-.56,1.847,1.847,0,0,1,1.336.56,2.178,2.178,0,0,1,.422,1.34,1.4,1.4,0,0,1-.563,1.19l-20.531,19.97a0.637,0.637,0,0,1-.492.35,3.04,3.04,0,0,1-.633.07,3.714,3.714,0,0,1-.773-0.07,0.63,0.63,0,0,1-.492-0.35l-8.016-8.01a1.831,1.831,0,0,1-.562-1.34,1.967,1.967,0,0,1,1.757-1.76,1.818,1.818,0,0,1,1.336.57l6.75,6.75,19.266-18.71h0Z" transform="translate(-870.031 -1619.53)"/></g>
    </symbol>


    <symbol id="book" viewBox="0 0 61.31 58.79">
    
       <g><path id="_" data-name="" class="cls-1" d="M1310.59,1648.66a5.645,5.645,0,0,1-.29,1.82,4.866,4.866,0,0,1-.84,1.55,4.953,4.953,0,0,1-1.26,1.13,8.117,8.117,0,0,1-1.55.7,8.716,8.716,0,0,1,.7,1.48,5.021,5.021,0,0,1,.28,1.75,5.208,5.208,0,0,1-.28,1.69,8.117,8.117,0,0,1-.7,1.55,9.455,9.455,0,0,1-1.27,1.05,7.3,7.3,0,0,1-1.4.78,8.023,8.023,0,0,1,.7,1.54,5.3,5.3,0,0,1,.28,1.69,5.079,5.079,0,0,1-.28,1.76,8.619,8.619,0,0,1-.7,1.47,5.987,5.987,0,0,1-1.27,1.2,3.638,3.638,0,0,1-1.55.63,4.825,4.825,0,0,1,1.13,3.24,5.024,5.024,0,0,1-.42,1.97,5.229,5.229,0,0,1-1.13,1.68,7.238,7.238,0,0,1-1.83,1.13,5.3,5.3,0,0,1-2.11.42h-18.56a10.433,10.433,0,0,1-2.25-.28,18.428,18.428,0,0,1-2.67-.84,24.043,24.043,0,0,1-2.81-1.06c-0.94-.42-1.88-0.82-2.81-1.19-1.13-.47-2.23-0.94-3.31-1.41a6.852,6.852,0,0,0-2.32-.7h-12.8v-27.43l1.13-.14h10.97a8.942,8.942,0,0,0,2.32-.28,6.385,6.385,0,0,0,2.18-1.12,23.738,23.738,0,0,0,2.88-1.97q1.62-1.275,3.87-3.1a14.178,14.178,0,0,0,5.13-9.14q0.765-5.475.77-6.32a3.249,3.249,0,0,1,.43-1.62,3.023,3.023,0,0,1,1.12-1.2,4.125,4.125,0,0,1,1.48-.77,5.549,5.549,0,0,1,1.47-.21,9.124,9.124,0,0,1,2.25.28,4.526,4.526,0,0,1,2.11,1.27,6.7,6.7,0,0,1,1.55,2.6,13.555,13.555,0,0,1,.56,4.29,29.3,29.3,0,0,1-.35,4.57,36.576,36.576,0,0,1-.91,4.15,23.294,23.294,0,0,1-1.06,3.58c-0.42,1.08-.77,1.99-1.05,2.74h19.12a5.924,5.924,0,0,1,2.18.36,6.08,6.08,0,0,1,1.76,1.05,4.528,4.528,0,0,1,1.05,1.62,5.53,5.53,0,0,1,.36,2.04h0Zm-5.35,2.95a3.638,3.638,0,0,0,1.27-.21,1.709,1.709,0,0,0,.84-0.63,4.309,4.309,0,0,0,.7-0.92,2.331,2.331,0,0,0,.29-1.19,2.713,2.713,0,0,0-.85-1.97,3.008,3.008,0,0,0-2.25-.85h-22.92l0.84-1.68q3.945-9.705,3.94-15.61c0-3.1-.51-4.9-1.55-5.42a6.082,6.082,0,0,0-2.53-.77,3.224,3.224,0,0,0-1.26.42,1.282,1.282,0,0,0-.85,1.13c0,0.56-.04,1.5-0.14,2.81a22.928,22.928,0,0,1-.84,4.5,29.08,29.08,0,0,1-2.04,5.2,14.092,14.092,0,0,1-3.73,4.64c-1.59,1.32-2.93,2.42-4,3.31a26.032,26.032,0,0,1-3.03,2.18,12.412,12.412,0,0,1-2.81,1.26,10.262,10.262,0,0,1-2.95.42h-9.71v22.79h10.41a7.669,7.669,0,0,1,2.6.63c1.08,0.42,2.41.96,4.01,1.62,0.75,0.37,1.57.77,2.46,1.19a25.892,25.892,0,0,0,2.6,1.06c0.94,0.28,1.78.54,2.53,0.77a6.893,6.893,0,0,0,1.97.35h18.56a2.788,2.788,0,0,0,1.27-.28,3.874,3.874,0,0,0,.98-0.7,1.653,1.653,0,0,0,.64-0.85,3.17,3.17,0,0,0,.21-1.12,3.069,3.069,0,0,0-.21-1.2,2.965,2.965,0,0,0-1.62-1.54,3.42,3.42,0,0,0-1.27-.22h-0.28v-2.39h3.24a3.17,3.17,0,0,0,1.12-.21,2.7,2.7,0,0,0,.99-0.63c0.18-.28.37-0.61,0.56-0.98a2.482,2.482,0,0,0,.28-1.13,2.443,2.443,0,0,0-.28-1.12,10.608,10.608,0,0,0-.56-0.99,8.739,8.739,0,0,0-.99-0.56,2.443,2.443,0,0,0-1.12-.28h-0.99v-2.39h3.52a3.17,3.17,0,0,0,1.12-.21,2.728,2.728,0,0,0,.99-0.64,3.874,3.874,0,0,0,.7-0.98,2.452,2.452,0,0,0,.28-1.13,2.745,2.745,0,0,0-.28-1.26,2.152,2.152,0,0,0-.7-0.85,3.758,3.758,0,0,0-.99-0.7,2.443,2.443,0,0,0-1.12-.28h-1.13v-2.39h4.08Z" transform="translate(-1249.28 -1620.09)"/></g>
    </symbol>


    <symbol id="facebook" viewBox="0 0 56.693 56.693">
    
       <g><path d="M40.43,21.739h-7.645v-5.014c0-1.883,1.248-2.322,2.127-2.322c0.877,0,5.395,0,5.395,0V6.125l-7.43-0.029  c-8.248,0-10.125,6.174-10.125,10.125v5.518h-4.77v8.53h4.77c0,10.947,0,24.137,0,24.137h10.033c0,0,0-13.32,0-24.137h6.77  L40.43,21.739z"/></g>
    </symbol>

    <symbol id="twitter" viewBox="0 0 56.693 56.693">
    
       <g><path d="M52.837,15.065c-1.811,0.805-3.76,1.348-5.805,1.591c2.088-1.25,3.689-3.23,4.444-5.592c-1.953,1.159-4.115,2-6.418,2.454  c-1.843-1.964-4.47-3.192-7.377-3.192c-5.581,0-10.106,4.525-10.106,10.107c0,0.791,0.089,1.562,0.262,2.303  c-8.4-0.422-15.848-4.445-20.833-10.56c-0.87,1.492-1.368,3.228-1.368,5.082c0,3.506,1.784,6.6,4.496,8.412  c-1.656-0.053-3.215-0.508-4.578-1.265c-0.001,0.042-0.001,0.085-0.001,0.128c0,4.896,3.484,8.98,8.108,9.91  c-0.848,0.23-1.741,0.354-2.663,0.354c-0.652,0-1.285-0.063-1.902-0.182c1.287,4.015,5.019,6.938,9.441,7.019  c-3.459,2.711-7.816,4.327-12.552,4.327c-0.815,0-1.62-0.048-2.411-0.142c4.474,2.869,9.786,4.541,15.493,4.541  c18.591,0,28.756-15.4,28.756-28.756c0-0.438-0.009-0.875-0.028-1.309C49.769,18.873,51.483,17.092,52.837,15.065z"/></g>
    </symbol>

      <symbol id="linkedin" viewBox="0 0 124 124">
    
       <g><path class="st0" d="M102.4,70.7v28.5c0,0.7-0.6,1.3-1.3,1.3H86.4c-0.7,0-1.3-0.6-1.3-1.3V72.7      c0-7-2.5-11.8-8.8-11.8c-4.8,0-7.6,3.2-8.9,6.3c-0.5,1.1-0.6,2.7-0.6,4.2v27.8c0,0.7-0.6,1.3-1.3,1.3H50.9      c-0.7,0-1.3-0.6-1.3-1.3c0-7.1,0.2-41.4,0-49.4c0-0.7,0.6-1.3,1.3-1.3h14.7c0.7,0,1.3,0.6,1.3,1.3v6.1c0,0.1-0.1,0.1-0.1,0.2      h0.1v-0.2c2.3-3.5,6.4-8.6,15.6-8.6C93.9,47.3,102.4,54.8,102.4,70.7L102.4,70.7z M24,100.6h14.7c0.7,0,1.3-0.6,1.3-1.3V49.8      c0-0.7-0.6-1.3-1.3-1.3H24c-0.7,0-1.3,0.6-1.3,1.3v49.5C22.8,100,23.3,100.6,24,100.6z" id="XMLID_18_"/></g>
    </symbol>

      <symbol id="youtube" viewBox="0 0 512 512">
    
       <g><path d="M476.387,144.888c-5.291-19.919-20.878-35.608-40.67-40.933C399.845,94.282,256,94.282,256,94.282    s-143.845,0-179.719,9.674c-19.791,5.325-35.378,21.013-40.668,40.933c-9.612,36.105-9.612,111.438-9.612,111.438    s0,75.334,9.612,111.438c5.29,19.92,20.877,34.955,40.668,40.281C112.155,417.719,256,417.719,256,417.719    s143.845,0,179.717-9.674c19.792-5.326,35.379-20.361,40.67-40.281c9.612-36.104,9.612-111.438,9.612-111.438    S485.999,180.994,476.387,144.888z" /><polygon points="208.954,324.723 208.954,187.93 329.18,256.328   " style="fill:#000;"/></g>
    </symbol>


     <symbol id="pinterest" viewBox="0 0 60 60">
    
       <g><path d="M30,60 C46.5685433,60 60,46.5685433 60,30 C60,13.4314567 46.5685433,0 30,0 C13.4314567,0 0,13.4314567 0,30 C0,46.5685433 13.4314567,60 30,60 Z"  id="Pinterest"/><path d="M32.7594534,39.0844011 C39.3650607,39.0844011 43.8461538,32.9370493 43.8461538,24.7083106 C43.8461538,18.4879013 38.683296,12.6923077 30.8387325,12.6923077 C21.076393,12.6923077 16.1538462,19.8375106 16.1538462,25.7957548 C16.1538462,29.4035321 17.4908705,32.6132513 20.3616445,33.8095301 C20.831959,34.0055526 21.2533867,33.8158437 21.3903287,33.2845985 C21.4839793,32.9163046 21.7104488,31.9873019 21.8088114,31.6009691 C21.9466368,31.0748349 21.893627,30.8905376 21.5137236,30.4317486 C20.6867711,29.4341982 20.1590293,28.1453197 20.1590293,26.3176799 C20.1590293,21.0172538 24.0419955,16.2721247 30.2747673,16.2721247 C35.7910237,16.2721247 38.8240664,19.7130423 38.8240664,24.3105531 C38.8240664,30.3583905 36.2024384,35.462794 32.3094593,35.462794 C30.1590293,35.462794 28.5513606,33.648082 29.0661444,31.4226848 C29.6825303,28.7655568 30.8805513,25.8967726 30.8805513,23.9786376 C30.8805513,22.2625382 29.9779126,20.8293487 28.1090234,20.8293487 C25.9111792,20.8293487 24.1462481,23.1509534 24.1462481,26.2593542 C24.1462481,28.239122 24.8026858,29.5785093 24.8026858,29.5785093 C24.8026858,29.5785093 22.5535988,39.3053775 22.1586759,41.0082484 C21.8005654,42.5589913 21.7469667,44.2633654 21.797326,45.7037705 C21.9478148,46.9959561 23.1994346,48.0482244 24.2852515,46.6306686 C25.0485923,45.3850835 25.8693603,43.8120926 26.2940276,42.2354939 C26.5472965,41.3025828 27.7400165,36.4699652 27.7400165,36.4699652 C28.454765,37.860162 30.5412887,39.0844011 32.7594534,39.0844011 Z" fill="#000" id="Pinterest"/></g>
    </symbol>



</svg>